


<svg xmlns="http://www.w3.org/2000/svg" viewBox="0 0 32 32" width="32" height="32">
  <defs>
    <!-- Premium glass background -->
    <radialGradient id="glassBg" cx="30%" cy="30%" r="100%">
      <stop offset="0%" style="stop-color:#1a1a2e;stop-opacity:1" />
      <stop offset="70%" style="stop-color:#16213e;stop-opacity:1" />
      <stop offset="100%" style="stop-color:#0f172a;stop-opacity:1" />
    </radialGradient>
    
    <!-- Neon sync gradient -->
    <linearGradient id="neonSync" x1="0%" y1="0%" x2="100%" y2="100%">
      <stop offset="0%" style="stop-color:#00f5ff;stop-opacity:1" />
      <stop offset="50%" style="stop-color:#00d4ff;stop-opacity:1" />
      <stop offset="100%" style="stop-color:#0099ff;stop-opacity:1" />
    </linearGradient>
    
    <!-- AI brain gradient -->
    <radialGradient id="brainGrad" cx="40%" cy="40%" r="60%">
      <stop offset="0%" style="stop-color:#ff6b6b;stop-opacity:1" />
      <stop offset="50%" style="stop-color:#ff5722;stop-opacity:1" />
      <stop offset="100%" style="stop-color:#e91e63;stop-opacity:1" />
    </radialGradient>
    
    <!-- Intense glow filter -->
    <filter id="neonGlow" x="-50%" y="-50%" width="200%" height="200%">
      <feGaussianBlur stdDeviation="3" result="coloredBlur"/>
      <feMerge> 
        <feMergeNode in="coloredBlur"/>
        <feMergeNode in="SourceGraphic"/>
      </feMerge>
    </filter>
    
    <!-- Pulsing animation -->
    <filter id="pulse">
      <feGaussianBlur stdDeviation="1.5" result="glow"/>
      <feMerge>
        <feMergeNode in="glow"/>
        <feMergeNode in="SourceGraphic"/> 
      </feMerge>
    </filter>
  </defs>
  
  <!-- Dark premium background -->
  <rect x="0" y="0" width="32" height="32" rx="8" ry="8" fill="url(#glassBg)"/>
  
  <!-- Subtle border -->
  <rect x="0.5" y="0.5" width="31" height="31" rx="7.5" ry="7.5" fill="none" stroke="#334155" stroke-width="0.5" opacity="0.6"/>
  
  <!-- Dynamic sync arrows with glow -->
  <g filter="url(#neonGlow)">
    <!-- Curved sync paths -->
    <path d="M 6 16 A 10 10 0 0 1 16 6 A 10 10 0 0 1 26 16" 
          stroke="url(#neonSync)" stroke-width="2.8" fill="none" stroke-linecap="round" opacity="0.9"/>
    <path d="M 26 16 A 10 10 0 0 1 16 26 A 10 10 0 0 1 6 16" 
          stroke="url(#neonSync)" stroke-width="2.8" fill="none" stroke-linecap="round" opacity="0.9"/>
    
    <!-- Directional arrows -->
    <polygon points="24,10 28,14 24,18 26,14" fill="url(#neonSync)" opacity="0.95"/>
    <polygon points="8,22 4,18 8,14 6,18" fill="url(#neonSync)" opacity="0.95"/>
  </g>
  
  <!-- AI Brain/Chip representation -->
  <g transform="translate(16,16)" filter="url(#pulse)">
    <!-- Brain circuit pattern -->
    <g stroke="url(#brainGrad)" stroke-width="1.2" fill="none" opacity="0.8">
      <!-- Main circuit paths -->
      <path d="M -4 -3 Q 0 -5 4 -3 Q 0 -1 -4 -3"/>
      <path d="M -4 0 Q 0 -2 4 0 Q 0 2 -4 0"/>
      <path d="M -4 3 Q 0 1 4 3 Q 0 5 -4 3"/>
      <!-- Vertical connectors -->
      <line x1="-2" y1="-3" x2="-2" y2="3"/>
      <line x1="2" y1="-3" x2="2" y2="3"/>
      <line x1="0" y1="-4" x2="0" y2="4"/>
    </g>
    
    <!-- Processing nodes -->
    <circle cx="-3" cy="-2.5" r="1" fill="url(#brainGrad)" opacity="0.9"/>
    <circle cx="3" cy="-2.5" r="1" fill="url(#brainGrad)" opacity="0.9"/>
    <circle cx="-3" cy="2.5" r="1" fill="url(#brainGrad)" opacity="0.9"/>
    <circle cx="3" cy="2.5" r="1" fill="url(#brainGrad)" opacity="0.9"/>
    
    <!-- Central processing core -->
    <circle cx="0" cy="0" r="2.5" fill="url(#brainGrad)" opacity="0.95"/>
    
    <!-- Core details -->
    <circle cx="0" cy="0" r="2" fill="none" stroke="#ffffff" stroke-width="0.3" opacity="0.4"/>
    <circle cx="0" cy="0" r="1.2" fill="#ffffff" opacity="0.15"/>
    
    <!-- Bright highlights -->
    <circle cx="-1" cy="-1" r="0.8" fill="#ffffff" opacity="0.6"/>
    <circle cx="1.2" cy="0.8" r="0.4" fill="#ffffff" opacity="0.8"/>
    
    <!-- Corner accent lights -->
    <circle cx="-3.5" cy="-3" r="0.3" fill="#00f5ff" opacity="0.9"/>
    <circle cx="3.5" cy="-3" r="0.3" fill="#00f5ff" opacity="0.9"/>
    <circle cx="-3.5" cy="3" r="0.3" fill="#00f5ff" opacity="0.9"/>
    <circle cx="3.5" cy="3" r="0.3" fill="#00f5ff" opacity="0.9"/>
  </g>
</svg>